<?xml version="1.0" standalone="no"?><!DOCTYPE svg PUBLIC "-//W3C//DTD SVG 1.1//EN" "http://www.w3.org/Graphics/SVG/1.1/DTD/svg11.dtd"><svg t="1687907670375" class="icon" viewBox="0 0 1024 1024" version="1.1" xmlns="http://www.w3.org/2000/svg" p-id="2150" xmlns:xlink="http://www.w3.org/1999/xlink" width="200" height="200"><path d="M485.546667 965.973333c-125.013333 0-226.56-119.893333-226.56-267.093333s101.546667-267.093333 226.56-267.093333 226.56 119.893333 226.56 267.093333-101.546667 267.093333-226.56 267.093333z m0-517.12c-115.626667 0-209.493333 112.213333-209.493334 250.026667s93.866667 250.026667 209.493334 250.026667 209.493333-112.213333 209.493333-250.026667-93.866667-250.026667-209.493333-250.026667z" fill="#13227a" p-id="2151"></path><path d="M410.88 944.213333l-13.226667-10.666666c5.546667-6.826667 138.24-172.8 302.933334-221.44l4.693333 16.213333c-159.573333 47.36-293.12 214.186667-294.4 215.893333zM313.173333 850.346667l-14.08-9.813334c1.28-2.133333 142.933333-199.253333 379.306667-265.386666l4.693333 16.64c-230.826667 64.426667-368.64 256.853333-369.92 258.56zM274.773333 681.813333l-11.946666-11.946666c1.706667-1.706667 154.88-152.746667 330.24-204.8l4.693333 16.213333c-171.093333 51.2-321.706667 199.253333-322.986667 200.533333z" fill="#13227a" p-id="2152"></path><path d="M559.786667 942.933333c-74.666667-130.133333-292.266667-219.733333-294.4-220.586666l6.4-15.786667c8.96 3.84 225.28 92.586667 302.933333 227.84l-14.933333 8.533333zM657.92 849.92c-134.4-215.466667-362.666667-266.666667-365.226667-267.093333l3.413334-16.64c2.56 0.426667 238.08 53.333333 375.893333 274.773333l-14.08 8.96zM695.893333 694.613333c-75.946667-163.84-291.84-226.56-293.973333-226.986666l4.693333-16.213334c9.386667 2.56 226.133333 65.28 305.066667 236.373334l-15.786667 6.826666z" fill="#13227a" p-id="2153"></path><path d="M333.653333 510.293333L224.853333 340.906667l122.88 60.586666-114.346666-263.68 207.786666 205.226667L502.186667 55.466667l37.973333 273.92L697.173333 145.066667 597.333333 367.786667l160.853334-85.76-128 143.36 94.293333 8.533333-91.733333 75.093333-10.666667-12.8 59.306667-49.066666-86.613334-7.68 86.613334-96.853334-119.893334 64 71.68-160-104.533333 122.453334-30.293333-215.04-46.933334 223.146666-167.253333-165.12 97.706667 225.28-109.226667-53.76 75.52 117.333334z" fill="#13227a" p-id="2154"></path></svg>